HIERARCHY
ROOT Pelvis
{
	OFFSET 0.000000 0.000000 0.000000
	CHANNELS 6 Xposition Yposition Zposition Xrotation Yrotation Zrotation
	JOINT LeftUpLeg_virtual
	{
		OFFSET 0.000000 0.000000 0.000000
		CHANNELS 3 Xrotation Yrotation Zrotation
		JOINT LeftUpLeg
		{
			OFFSET 18.735201 -5.666702 -4.541200
			CHANNELS 3 Xrotation Yrotation Zrotation
			JOINT LeftLeg
			{
				OFFSET -0.021200 -31.938179 0.493100
				CHANNELS 3 Xrotation Yrotation Zrotation
				JOINT LeftFoot
				{
					OFFSET 0.021200 -31.938179 -4.336299
					CHANNELS 3 Xrotation Yrotation Zrotation
					JOINT LeftToeBase
					{
						OFFSET 0.943001 -26.722000 15.023500
						CHANNELS 3 Xrotation Yrotation Zrotation
						End Site
						{
							OFFSET 0 0 0
						}
					}
				}
			}
		}
	}
	JOINT RightUpLeg_virtual
	{
		OFFSET 0.000000 0.000000 0.000000
		CHANNELS 3 Xrotation Yrotation Zrotation
		JOINT RightUpLeg
		{
			OFFSET -18.735201 -5.666702 -4.541200
			CHANNELS 3 Xrotation Yrotation Zrotation
			JOINT RightLeg
			{
				OFFSET 0.018946 -31.938133 0.493100
				CHANNELS 3 Xrotation Yrotation Zrotation
				JOINT RightFoot
				{
					OFFSET -0.018946 -31.938126 -4.336299
					CHANNELS 3 Xrotation Yrotation Zrotation
					JOINT RightToeBase
					{
						OFFSET -0.943001 -26.722004 15.023500
						CHANNELS 3 Xrotation Yrotation Zrotation
						End Site
						{
							OFFSET 0 0 0
						}
					}
				}
			}
		}
	}
	JOINT Hips_virtual
	{
		OFFSET 0.000000 0.000000 0.000000
		CHANNELS 3 Xrotation Yrotation Zrotation
		JOINT Hips
		{
			OFFSET -0.000000 -0.000000 -0.000000
			CHANNELS 3 Xrotation Yrotation Zrotation
			JOINT Spine
			{
				OFFSET 0.000000 10.199997 -0.299500
				CHANNELS 3 Xrotation Yrotation Zrotation
				JOINT Spine1
				{
					OFFSET 0.000000 11.900002 -1.516600
					CHANNELS 3 Xrotation Yrotation Zrotation
					JOINT Spine2
					{
						OFFSET 0.000000 13.600006 -2.842500
						CHANNELS 3 Xrotation Yrotation Zrotation
						JOINT Neck_virtual
						{
							OFFSET 0.000000 0.000000 0.000000
							CHANNELS 3 Xrotation Yrotation Zrotation
							JOINT Neck
							{
								OFFSET 0.000000 9.624100 -2.890100
								CHANNELS 3 Xrotation Yrotation Zrotation
								JOINT Head
								{
									OFFSET 0.000000 14.068802 -1.351900
									CHANNELS 3 Xrotation Yrotation Zrotation
									End Site
									{
										OFFSET 0 0 0
									}
								}
							}
						}
						JOINT LeftShoulder_virtual
						{
							OFFSET 0.000000 0.000000 0.000000
							CHANNELS 3 Xrotation Yrotation Zrotation
							JOINT LeftShoulder
							{
								OFFSET 15.263000 10.923401 -0.547700
								CHANNELS 3 Xrotation Yrotation Zrotation
								JOINT LeftArm
								{
									OFFSET 25.438599 -2.830597 -13.032500
									CHANNELS 3 Xrotation Yrotation Zrotation
									JOINT LeftForeArm
									{
										OFFSET 29.960503 0.000000 0.000000
										CHANNELS 3 Xrotation Yrotation Zrotation
										JOINT LeftHand
										{
											OFFSET 27.849251 0.000000 0.000000
											CHANNELS 3 Xrotation Yrotation Zrotation
											End Site
											{
												OFFSET 0 0 0
											}
										}
									}
								}
							}
						}
						JOINT RightShoulder_virtual
						{
							OFFSET 0.000000 0.000000 0.000000
							CHANNELS 3 Xrotation Yrotation Zrotation
							JOINT RightShoulder
							{
								OFFSET -15.263000 10.923401 -0.547700
								CHANNELS 3 Xrotation Yrotation Zrotation
								JOINT RightArm
								{
									OFFSET -25.438599 -2.830597 -13.032500
									CHANNELS 3 Xrotation Yrotation Zrotation
									JOINT RightForeArm
									{
										OFFSET -29.960503 0.000000 0.000000
										CHANNELS 3 Xrotation Yrotation Zrotation
										JOINT RightHand
										{
											OFFSET -27.849251 0.000000 0.000000
											CHANNELS 3 Xrotation Yrotation Zrotation
											End Site
											{
												OFFSET 0 0 0
											}
										}
									}
								}
							}
						}
					}
				}
			}
		}
	}
}
MOTION
Frames: 8
Frame Time: 0.03333333
-3.573513 70.567543 3.608395 0.000000 0.000000 0.000000 -7.363385 -22.541639 -4.909270 -53.360737 4.580057 14.583427 61.803281 14.524807 -3.284927 4.817729 15.237821 1.953925 0.000000 0.000000 0.000000 16.147532 -11.212182 4.550450 -9.083635 -10.518375 -11.683271 45.603322 -4.342514 7.192622 -6.838128 -11.035007 19.865598 0.000000 0.000000 0.000000 5.508250 4.518124 -1.930355 9.332496 -4.894457 -9.433479 10.997010 8.823653 -4.025536 5.083059 5.190587 -2.287846 0.000000 0.000000 0.000000 3.763715 2.721455 -0.484642 -0.232208 0.539543 0.868471 0.000000 0.000000 0.000000 3.147914 4.485246 -2.445300 0.006528 1.477978 -6.432488 -8.834805 6.930349 -39.682771 -1.224495 -24.547720 -0.815722 0.000000 0.000000 0.000000 4.983555 4.295995 -2.561171 1.896952 18.993820 -5.255184 -28.654870 54.498424 20.663486 128.400289 85.828567 -134.599751 0.000000 0.000000 0.000000 
-2.989923 70.422531 3.853081 0.000000 0.000000 0.000000 -8.330379 -25.380986 -6.224430 -54.267909 4.312575 13.666336 62.229252 16.020731 -3.036735 4.639442 16.510125 3.596295 0.000000 0.000000 0.000000 15.384817 -11.052849 1.812961 -9.590964 -10.023730 -14.465480 46.304683 -4.986712 8.090561 -6.315425 -12.024333 20.688136 0.000000 0.000000 0.000000 4.159465 6.553708 -2.609325 14.619726 -3.697927 -5.113340 11.667403 8.965284 -5.052386 5.470398 5.465302 -2.524388 0.000000 0.000000 0.000000 3.644117 2.716673 -0.764149 -0.332091 0.557254 1.040029 0.000000 0.000000 0.000000 3.062259 4.288083 -2.915997 0.439625 0.859820 -7.648118 -9.378380 9.140785 -41.008340 -0.474453 -23.297803 -0.605583 0.000000 0.000000 0.000000 5.403762 4.524677 -2.591455 2.974838 18.623530 -4.057775 -22.118543 57.352299 14.682699 145.978983 83.874327 -151.984195 0.000000 0.000000 0.000000 
-4.350717 71.815369 4.354391 0.000000 0.000000 0.000000 -9.257132 -27.477860 -6.684136 -54.798092 3.754126 13.231939 64.700647 16.250502 -3.215995 6.859513 16.987521 3.820141 0.000000 0.000000 0.000000 15.804866 -11.087549 1.302290 -8.768240 -10.037591 -14.985107 48.777936 -4.833789 8.705313 -4.163195 -11.983782 21.718192 0.000000 0.000000 0.000000 5.986947 6.778629 -2.215150 18.440572 -6.788581 -5.484070 12.942668 8.772438 -5.882287 5.263857 5.469473 -2.484942 0.000000 0.000000 0.000000 3.558550 2.530129 -0.630423 -0.694194 0.220231 1.022889 0.000000 0.000000 0.000000 3.287459 4.794584 -2.797043 0.138440 -1.076395 -8.137192 -10.067806 11.232811 -39.818613 -0.411224 -19.598558 0.143666 0.000000 0.000000 0.000000 5.462494 4.644359 -2.689991 3.216571 17.936224 -3.820623 -17.335517 60.157957 13.028081 132.139695 84.520456 -138.505281 0.000000 0.000000 0.000000 
-4.465312 72.610687 5.615046 0.000000 0.000000 0.000000 -11.095268 -29.596651 -8.280313 -56.111835 3.482406 12.102704 66.073064 16.418653 -3.496040 8.351421 17.442956 3.703209 0.000000 0.000000 0.000000 14.543489 -11.567386 0.668888 -10.357380 -9.836923 -15.643203 50.162108 -5.125706 9.593603 -2.661528 -12.577956 22.905487 0.000000 0.000000 0.000000 6.125044 6.117920 -2.328093 22.732497 -7.870710 -3.654450 12.645379 7.599602 -5.317991 5.979473 5.223050 -2.933004 0.000000 0.000000 0.000000 3.337290 2.228486 -0.499915 -0.704503 0.232078 1.127363 0.000000 0.000000 0.000000 3.642173 4.039122 -3.167138 -0.206595 -2.251165 -8.481778 -11.606762 10.924814 -39.994070 -1.315928 -20.415847 0.028995 0.000000 0.000000 0.000000 5.863230 4.427289 -2.829431 2.668860 16.112537 -2.984255 -18.619599 57.854270 10.511011 141.564878 82.722552 -148.462713 0.000000 0.000000 0.000000 
-5.133422 72.023659 6.933098 0.000000 0.000000 0.000000 -10.886177 -28.411719 -6.968051 -57.279196 3.326908 13.860861 67.607944 15.963641 -3.977494 9.529805 17.198671 2.751498 0.000000 0.000000 0.000000 14.844677 -10.291634 -0.206113 -9.929239 -9.453424 -16.410125 52.509456 -4.815201 9.799675 -0.516152 -12.179450 23.467217 0.000000 0.000000 0.000000 7.858751 5.932354 -2.795848 19.754432 -11.184286 -3.742679 14.047817 7.718833 -6.048161 6.021900 5.094093 -2.838989 0.000000 0.000000 0.000000 4.815361 2.313700 -0.789561 -0.218918 0.178194 1.045862 0.000000 0.000000 0.000000 3.488235 3.901363 -3.496676 -0.315038 -2.334171 -9.785684 -10.357276 11.997698 -38.669099 -1.271637 -19.795386 0.306413 0.000000 0.000000 0.000000 5.727615 4.390852 -2.429497 2.537979 16.282548 -1.889724 -21.181615 57.896788 11.933742 148.872087 81.934546 -155.610492 0.000000 0.000000 0.000000 
-4.671046 72.838554 8.268074 0.000000 0.000000 0.000000 -9.662170 -23.701214 -5.810229 -57.623991 4.338107 15.409016 68.328311 16.585033 -4.662164 9.717807 18.065905 2.374678 0.000000 0.000000 0.000000 14.274819 -8.416585 -1.499479 -10.748452 -8.632592 -17.546353 54.121490 -3.809624 10.203467 0.903718 -11.242983 24.857275 0.000000 0.000000 0.000000 7.641412 3.686181 -2.290208 27.797864 -5.371931 -6.575065 11.972756 7.639875 -6.501279 5.973463 5.367035 -3.257315 0.000000 0.000000 0.000000 3.993733 2.260263 -0.829513 -0.138436 -0.076767 1.059467 0.000000 0.000000 0.000000 3.304970 4.240415 -3.767826 -0.023890 -1.939654 -9.604458 -12.808726 14.104763 -38.044693 -1.759977 -19.585608 0.366540 0.000000 0.000000 0.000000 5.674872 4.296754 -2.495718 2.299288 15.753104 -2.141147 -25.805377 59.351878 12.189158 130.020342 84.256148 -137.247857 0.000000 0.000000 0.000000 
-5.171338 72.191406 8.951391 0.000000 0.000000 0.000000 -9.945722 -26.986655 -6.976561 -57.723623 4.061866 14.575777 67.369885 16.310533 -4.796040 8.937746 17.801117 1.750831 0.000000 0.000000 0.000000 12.556587 -6.599202 -2.297692 -13.044119 -7.616218 -18.065294 55.683486 -2.835727 10.674606 2.790573 -10.312451 26.485582 0.000000 0.000000 0.000000 8.936916 3.911934 -1.507209 22.910867 -4.163236 -7.692107 11.063972 7.975012 -6.688478 5.884224 4.740700 -3.380102 0.000000 0.000000 0.000000 3.876100 2.295552 -0.820004 -0.400902 -0.196623 0.994078 0.000000 0.000000 0.000000 3.449396 4.011188 -4.122292 -0.044515 -3.912900 -11.235262 -12.083163 14.053709 -37.289114 -1.914573 -21.243688 0.096584 0.000000 0.000000 0.000000 5.279848 4.451132 -2.538548 1.934890 15.133570 -2.664799 -28.585993 59.451872 14.413048 124.471837 85.538270 -131.713518 0.000000 0.000000 0.000000 
-5.247831 71.494888 8.632833 0.000000 0.000000 0.000000 -9.189965 -27.303492 -7.409581 -57.475195 4.454682 14.484039 67.736796 16.523754 -5.104020 8.935146 18.112111 1.497294 0.000000 0.000000 0.000000 11.650405 -3.561661 -3.550080 -14.192430 -6.400632 -18.929019 58.427296 -1.644433 10.633419 5.325856 -8.770858 27.444235 0.000000 0.000000 0.000000 10.305627 2.702967 -1.631279 23.236051 -6.822733 -8.249933 12.320944 7.720459 -6.999825 5.915287 4.737833 -3.853766 0.000000 0.000000 0.000000 4.275382 2.553060 -1.344658 -0.509247 -0.346653 0.939885 0.000000 0.000000 0.000000 3.630940 3.624976 -4.390453 -0.528551 -4.441556 -11.480373 -12.231911 15.700090 -38.661278 -2.940778 -24.381870 0.031975 0.000000 0.000000 0.000000 6.411546 4.415863 -2.791073 2.034526 14.570129 -1.926383 -26.946220 60.407805 12.352703 130.715286 85.485555 -138.165233 0.000000 0.000000 0.000000 
